PathFileType	4	(X/Y/Z)	Patient4_TMGait_0pt4_03_right_16.trc.trc
DataRate	CameraRate	NumFrames	NumMarkers	Units	OrigDataRate	OrigDataStartFrame	OrigNumFrames
72.916666666667	72.916666666667	4	33	mm	72.916666666667	71	       141
Frame#	Time	Sacral			L.Shoulder			Chest			R.Shoulder			Neck			R.ASIS			L.ASIS			R.Thigh.Superior			R.Thigh.Lateral			R.Thigh.Inferior			R.Patella			L.Thigh.Superior			L.Thigh.Lateral			L.Thigh.Inferior			L.Patella			L.Shank.Superior			L.Shank.Lateral			L.Shank.Inferior			R.Shank.Superior			R.Shank.Lateral			R.Shank.Inferior			R.Heel			R.Midfoot.Superior			R.Midfoot.Lateral			R.Toe			L.Heel			L.Midfoot.Lateral			L.Midfoot.Superior			L.Toe			L.Elbow			L.Wrist			R.Elbow			R.Wrist			
		X1	Y1	Z1	X2	Y2	Z2	X3	Y3	Z3	X4	Y4	Z4	X5	Y5	Z5	X6	Y6	Z6	X7	Y7	Z7	X8	Y8	Z8	X9	Y9	Z9	X10	Y10	Z10	X11	Y11	Z11	X12	Y12	Z12	X13	Y13	Z13	X14	Y14	Z14	X15	Y15	Z15	X16	Y16	Z16	X17	Y17	Z17	X18	Y18	Z18	X19	Y19	Z19	X20	Y20	Z20	X21	Y21	Z21	X22	Y22	Z22	X23	Y23	Z23	X24	Y24	Z24	X25	Y25	Z25	X26	Y26	Z26	X27	Y27	Z27	X28	Y28	Z28	X29	Y29	Z29	X30	Y30	Z30	X31	Y31	Z31	X32	Y32	Z32	X33	Y33	Z33	

71	21.070000000000	844.725995676426	1009.451814377297	531.661490910821	1015.080308344405	1424.782462863730	323.803706282459	1137.818292941718	1354.522078039335	469.723148352276	1084.872156843012	1434.101717100042	652.570936732502	1022.596435378238	1490.048998119358	480.297810161934	1079.477186591962	934.324603228562	625.760365783557	1040.027147658096	955.629762928458	353.771319713441	1074.787762403756	723.740871879958	598.415605448154	971.639902986500	630.315634303969	662.736593566354	1030.903642358922	564.450961547675	582.886359929131	1016.110642360363	480.649064175882	588.680464799725	1107.504141125267	763.971061683276	375.949297176433	1045.552552691337	639.263327521297	299.513666924542	1149.407546189492	576.141502197296	354.802679481121	1172.717544867226	512.297319385920	350.804049368548	1153.513662883066	441.885585998641	340.282692412432	1082.269739394210	314.733269315559	290.176160725726	1168.987261900257	212.508584527728	339.645925319952	977.180498279000	398.550542077118	593.180251339167	896.701919177979	301.203921051372	654.245130479046	929.913165063196	203.641670313099	588.526557436537	787.568404430536	43.246967317105	551.668303323351	956.452736352622	95.362228035948	595.390436712914	867.219997383127	36.227938481050	629.718389618870	1075.939571290873	41.747969620485	628.555783166466	1080.130360542336	40.314563679629	377.611158816872	1151.853650610884	41.227853188259	295.713201218806	1228.315240728387	112.580991502698	316.949363890146	1358.799465113567	74.533382546924	285.904150122241	912.635279696178	1083.233737686979	225.436549871581	959.458841226415	827.259236795368	185.113951534074	1177.123239981121	1099.580098531933	765.947622386373	1411.643767822817	1059.313603793416	675.725555862554	
72	21.083714285714	845.819643184984	1008.355536442095	528.968154244814	1015.355807908657	1423.711554065547	320.766268626067	1137.766663579643	1354.235640668901	467.287626838368	1083.677096744489	1433.607797641916	649.897177593067	1021.966492022466	1489.291969645754	477.235496566583	1080.420250569417	933.872399312381	624.443037587592	1042.029919137222	954.147511458869	352.421818624849	1074.775315168208	722.882323216800	597.767417374124	970.298825747476	630.132158152181	661.668333611901	1029.386271321734	563.636691969686	582.394705422949	1013.942890182086	479.633615906301	588.127171632553	1108.447936644885	760.978266234479	374.611943578175	1044.118398089963	636.613202816752	299.586966272667	1147.925867339742	573.357027228527	354.807788950132	1170.167267650502	509.120931556257	351.329936164155	1150.743647819997	438.680041347486	340.724265202728	1078.417625815927	311.750584102817	291.714993712264	1164.732368144275	209.308129351673	341.236132272602	974.106211854511	398.091288788554	592.556217378429	892.873710988683	301.532428145128	653.869864000272	925.357613898328	203.569675603856	588.368470065010	782.113886761547	43.492372997698	551.841934236071	951.022200319164	95.369930410633	595.464309264669	861.750507651708	36.265523526525	629.731373161466	1070.436428494875	41.578101957474	628.606395301636	1074.059345642183	39.127910597124	380.044316606804	1145.203501611754	39.275027952010	297.529116139628	1223.193960392279	108.730088635135	318.895475579632	1352.896436426353	68.218674734606	286.654468235883	913.771529499898	1081.836711643402	222.811919469407	961.815191657018	826.004802020244	182.873230273684	1176.333270242690	1098.585530331892	762.493840850954	1410.317034944084	1054.228294159110	671.770300553539	
73	21.097428571429	846.884811354633	1007.416330267758	526.222190411939	1015.763827413818	1422.726162189870	317.574194088130	1137.833347689263	1353.998369734001	464.687877989672	1082.675199885812	1433.245646678492	647.048515690349	1021.457960649453	1488.662998006274	473.939049956603	1081.354788205824	933.489497408325	622.901465218784	1043.894075270819	952.937846324213	350.877574256420	1075.110374925823	722.140778301359	596.858430222102	969.550143896210	629.925361651516	660.376062898054	1028.504638941549	562.877064413932	581.587081198909	1012.404954875163	478.601344159492	587.254684853867	1109.549188280926	758.582196604132	373.291695887842	1043.360857259288	634.607847952505	299.452026619449	1147.019427771320	571.302529322997	354.874563236912	1168.101834664963	506.509814277045	351.863341680602	1148.515388996187	435.950829377343	341.016224161827	1075.134226651193	309.399054498838	292.604363804936	1160.637058152377	206.545151586585	342.465640909718	971.623579774153	397.568130992035	591.716939050361	889.536316985196	301.941253055109	653.350632040729	921.088465997000	203.517513854036	588.114766795673	776.691739617677	43.955584642495	552.054600847164	945.669789798323	95.426458492864	595.545811174042	856.326964074838	36.392057048838	629.762084493640	1064.966549280078	41.356896195393	628.665628960459	1067.818783620822	38.315138791574	381.786691498980	1138.580655003969	37.745292851698	298.834087031788	1217.997559475113	105.369745492119	320.541699582080	1347.009915557366	62.506063381111	287.432163763379	915.296691344180	1080.469020127951	219.907049450941	964.591922326738	824.803991884623	180.313129778257	1175.110388425733	1097.671581512532	759.324708074123	1408.408211042058	1048.107093446813	668.426875352869	
74	21.111142857143	847.888228860059	1006.700068983200	523.460514895571	1016.280417345694	1421.890085283739	314.272851080942	1138.025263918591	1353.833483856007	461.929440979778	1081.947993612434	1433.065556887824	644.037663041705	1021.103324905100	1488.208041849402	470.459897110189	1082.245985806789	933.220174625138	621.102134632866	1045.532910263647	952.073198818003	349.086719161987	1075.728069774667	721.564849023174	595.642970648405	969.371800127063	629.728672103916	658.854080542759	1028.235856918929	562.212585724885	580.450182514479	1011.498220452755	477.594692211210	586.076680314703	1110.803287978470	756.961973884567	371.966446242982	1043.380398109202	633.358614961677	299.044323107618	1146.762471786994	570.065952300859	354.891685401685	1166.598295451326	504.557581027887	352.290057842039	1146.905668217157	433.789032464168	341.102282391833	1072.522328422596	307.762582139977	292.771943672876	1156.793995202515	204.318276629666	343.290738121188	969.736465028211	397.012986285883	590.679670170651	886.682231070892	302.460360585922	652.689055012020	917.112602399365	203.515815849912	587.774261555033	771.308404104332	44.697492408032	552.303674277687	940.417076692734	95.547156042582	595.638541147229	850.955712623439	36.639227268853	629.810514973405	1059.536997669013	41.081747163526	628.732804638547	1061.623249413138	37.851888776386	382.858049292424	1132.183174185313	36.649640243931	299.639830270425	1212.826725548068	102.647380577813	321.816094453374	1341.274200420786	57.720949698069	288.161965646262	917.222789523352	1079.195668323373	216.736094121587	967.792024271325	823.718045635892	177.459856151317	1173.476403355496	1096.876998489977	756.424193142784	1405.864400200932	1040.943227231835	665.757968882971	
